<svg xmlns="http://www.w3.org/2000/svg" width="76.08" height="63.84" viewBox="0 0 76.08 63.84">
  <g id="Gruppe_21" data-name="Gruppe 21" transform="translate(-409.536 -134.716)">
    <path id="Pfad_57" data-name="Pfad 57" d="M418.487,149.876a107.707,107.707,0,0,0,13.925-8.192c5.528-4.094,13.847-8.573,17.43-6.4s21.885,12.287,27.771,14.59,9.472,7.166,7.423,10.494-6.27,5.247-6.909,8.19-10.24,6.526-21.5,6.911-36.09-2.689-38.137-5.375-2.815-3.328-4.351-6.143-7.551-5.119-2.815-10.24Z" transform="translate(0 0)" fill="#31809e"/>
    <path id="Pfad_58" data-name="Pfad 58" d="M415.544,152.362s31.242,9.237,56.383,1.42c0,0,4.792,1.778,3,6s-10.238,20.349-26.364,20.988-25.211-4.99-28.154-11.005S407.481,154.409,415.544,152.362Z" transform="translate(2.943 17.734)" fill="#1c4859"/>
  </g>
</svg>
