<svg xmlns="http://www.w3.org/2000/svg" width="366.925" height="232.447" viewBox="0 0 366.925 232.447">
  <g id="Gruppe_34" data-name="Gruppe 34" transform="translate(-140.425 -175.863)">
    <path id="Pfad_79" data-name="Pfad 79" d="M474.872,253.353v-.006c-.018-.439-.047-.884-.1-1.341l-11.844-52.453s-1.614-8.206-3.711-9.624L456.176,192s1.252,2.584,3.068,7.276c2.079,5.354,4.9,14.216,7.451,27.606,4.785,25.122,8.476,29.609,3.292,34.9s-147.16,118.043-147.16,118.043L299.18,398.381c-.006.006-.006.006-.012.006a12.843,12.843,0,0,1-1.728,1.359c-7.316,4.879-17.5,1.74-18.3,1.482a.237.237,0,0,0-.041-.012.018.018,0,0,0-.012-.006,83.249,83.249,0,0,1-14.878-8.025c-23.23-15.258-96.512-65.4-96.512-65.4l-16.149-11.369s-5.383-5.2,0-11.783a18.678,18.678,0,0,0-3.339,3.225c-1.881,1.532-2.626,3-2.624,4.4a6.744,6.744,0,0,0,.041,1.74.022.022,0,0,0,.006.018v.029c.035.223.082.457.141.7.006.006.006.012.006.023a5.822,5.822,0,0,0,.41.8c.808,1.341,2.753,3.643,7.415,7.269,3.567,3.4,5.564,4.613,6.279,4.51.008,0,.018.012.023.018s.006.012.012.012a.006.006,0,0,0,.006.006l18.158,12.248,2.062,1.388,1.968,1.335c.381.252.756.5,1.136.761l2.056,1.388c9.1,6.139,17.636,11.9,21.7,14.638.187.129.369.252.539.363.972.656,1.611,1.089,1.845,1.248.029.018.053.035.07.047a.3.3,0,0,0,.029.018l57.414,38.729c.006,0,.006.006.012.012a.366.366,0,0,1,.059.041c.029.018.07.047.117.082l2.126,1.435a.954.954,0,0,1,.1.064.526.526,0,0,1,.047.029,1.013,1.013,0,0,1,.105.064c3.222,2.021,9.1,5.2,15.329,6.156a.018.018,0,0,1,.012.006c.006-.006.012,0,.018,0,.059.012.193.035.41.059.035.006.076.006.111.012,1.558.152,6.226.211,11.926-3.462a.319.319,0,0,0,.053-.041c.9-.668,1.962-1.488,3.263-2.519q.281-.228.58-.457l.012-.012c.182-.146.369-.3.562-.451.264-.2.533-.428.82-.65.428-.346.879-.7,1.353-1.084,10.133-8.1,10.877-8.692,10.877-8.692l97.162-77.668L441.332,288.7l26.059-21.139s.158-.094.433-.287l1.611-1.3.047-.041s.006,0,.012-.012v-.006c.146-.135.3-.281.457-.433-.234.24-.4.387-.451.439a13.877,13.877,0,0,0,5.16-7.849A13.5,13.5,0,0,0,474.872,253.353Zm-.451,4.457.105-.457A2.648,2.648,0,0,1,474.421,257.811Z" transform="translate(-2.121 -5.827)" fill="#dffcff"/>
    <path id="Pfad_80" data-name="Pfad 80" d="M145.677,401.287a5.818,5.818,0,0,0,.41.8l-.223-.152a2.906,2.906,0,0,1-.551-2.1,5.148,5.148,0,0,1,.17-1.054,6.743,6.743,0,0,0,.041,1.74.022.022,0,0,0,.006.018v.029c.035.223.082.457.141.7C145.677,401.269,145.677,401.275,145.677,401.287Z" transform="translate(-2.022 -92.347)" fill="#eaf8ff"/>
    <path id="Pfad_81" data-name="Pfad 81" d="M471.869,257.342c-5.184,5.283-147.16,118.043-147.16,118.043l-23.646,18.556c-.006.006-.006.006-.012.006a12.841,12.841,0,0,1-1.728,1.359c-7.316,4.879-17.5,1.74-18.3,1.482a.238.238,0,0,0-.041-.012.018.018,0,0,0-.012-.006,83.249,83.249,0,0,1-14.878-8.025c-23.23-15.258-96.512-65.4-96.512-65.4l-16.149-11.369s-5.383-5.2,0-11.783a34.031,34.031,0,0,1-3.339,3.225c2.911-3.339,8.657-7.837,19.687-13.571l76.269-48.458,76.872-48.9a59.975,59.975,0,0,1,16.447-8.341c9.5-3.022,98.181-6,104.987-4.551a103.931,103.931,0,0,0,12.166,1.874s-4.4,0-4.44,2l-1.394.346s-11.51-4.657-22.791-2.068-17.671,9.32-12.107,17.057c5.147,7.157,38.142,15.294,45.342-3.96,2.079,5.354,4.9,14.216,7.451,27.606C473.363,247.566,477.053,252.053,471.869,257.342Z" transform="translate(-4.004 -1.388)" fill="#bff8ff"/>
    <path id="Pfad_82" data-name="Pfad 82" d="M612.724,194.7s2.143-6.331,11.964-6.929,13.659,1.246,13.659,1.246l-6.131,3.489s-11.017-.723-13.808,1.645c0,0-6.8,2.518-2.443,7.029a20.579,20.579,0,0,0,6.082,3.24S610.7,204.217,612.724,194.7Z" transform="translate(-195.557 -4.882)" fill="#516599"/>
    <path id="Pfad_83" data-name="Pfad 83" d="M655.756,197.791s4.579,1.7,3.807,4.4a14.806,14.806,0,0,1-3.29,5.235s8.6-2.113,6.929-8.385c.315-.1-.653-2.688-2.062-4.136Z" transform="translate(-213.484 -7.886)" fill="#516599"/>
    <path id="Pfad_84" data-name="Pfad 84" d="M619.783,201.8c-.068-.063-19.656-2.858-10.17-14.656,8.887-11.054,30-2.929,30.359-3.041l-3.889,2.293c.006.111-12.2-2.682-21.14.932a4.774,4.774,0,0,0-1.545,1.1C611.059,190.762,605.2,198.118,619.783,201.8Z" transform="translate(-193.294 -2.264)" fill="#b4e9ff"/>
    <path id="Pfad_85" data-name="Pfad 85" d="M664.211,195.5l3.888-1.1s2.949,8.913-6.178,11.572C661.921,205.976,668.7,202.205,664.211,195.5Z" transform="translate(-216.038 -7.681)" fill="#c5ffe3"/>
    <path id="Pfad_86" data-name="Pfad 86" d="M614.434,182.812s-12.668,1.812-14.252,9.432c-1.646,7.923,3.8,14.111,18.045,16.7,14.271,2.592,27.722-5.7,27.268-7.154a7.7,7.7,0,0,0,2.093-6.4,13.061,13.061,0,0,0-3.19-6.335l-1.994.548s1.753,8.987-6.178,11.572-19.395,1.239-19.395,1.239-13.614-2.076-12.536-10.276a2.878,2.878,0,0,1,.22-.764A15.818,15.818,0,0,1,614.434,182.812Z" transform="translate(-190.344 -2.879)" fill="#dffcff"/>
    <path id="Pfad_87" data-name="Pfad 87" d="M635.139,206.277s-3.738,3.051-2.816,6.041a26.74,26.74,0,0,0,7.507.111v-1.534S634.641,208.37,635.139,206.277Z" transform="translate(-203.716 -12.599)" fill="#d4f4ff"/>
    <path id="Pfad_88" data-name="Pfad 88" d="M637.214,203.9a4.894,4.894,0,0,1,2.443-3.365,11.522,11.522,0,0,0,4.387,4.686s-1.06,2.88-2.138,3.3C641.906,208.515,636.766,206.589,637.214,203.9Z" transform="translate(-205.791 -10.219)" fill="#c8feff"/>
    <path id="Pfad_89" data-name="Pfad 89" d="M645.772,194.4s-4.418.972-4.368,3.589a8.012,8.012,0,0,0,4.387,4.686,5.624,5.624,0,0,0,2.792-2.489S645.753,196.947,645.772,194.4Z" transform="translate(-207.538 -7.681)" fill="#cbffea"/>
    <path id="Pfad_90" data-name="Pfad 90" d="M648.823,192.551s2.71-2.941,4.555-2.592a16.141,16.141,0,0,0,1.147,4.988s.125,1.748-2.891,3.39C651.634,198.337,648.306,195.641,648.823,192.551Z" transform="translate(-210.589 -5.827)" fill="#d4f4ff"/>
    <path id="Pfad_91" data-name="Pfad 91" d="M661.913,185.443a5.562,5.562,0,0,0-5.284,2.642s-.224,3.147,1.147,4.988c0,0,3.539-.651,4.237-1.3S661.913,185.443,661.913,185.443Z" transform="translate(-213.839 -3.953)" fill="#c8feff"/>
    <path id="Pfad_92" data-name="Pfad 92" d="M670.078,182.06s-3.121-.224-4.442,1.994c0,0-.125,3.116.1,6.331a40.137,40.137,0,0,0,4.343-1.1S671.155,184.651,670.078,182.06Z" transform="translate(-217.562 -2.564)" fill="#cbffea"/>
    <path id="Pfad_93" data-name="Pfad 93" d="M673.244,180.736s2.636-2.468,5.776-1.745a27.775,27.775,0,0,0-1.2,6.352s-1.11,1.948-4.58,2.621C673.244,187.964,674.271,182.755,673.244,180.736Z" transform="translate(-220.728 -1.241)" fill="#d4f4ff"/>
    <path id="Pfad_94" data-name="Pfad 94" d="M682.225,178.293a7.392,7.392,0,0,1,6.281-.8,6.055,6.055,0,0,0-2.493,4.5s-.349,3.642-4.985,2.649C681.029,184.646,680.6,179.764,682.225,178.293Z" transform="translate(-223.932 -0.543)" fill="#c8feff"/>
    <path id="Pfad_95" data-name="Pfad 95" d="M696.925,176.656a7.655,7.655,0,0,0-4.935.548,5.477,5.477,0,0,0-2.6,4.99s2.593,1.433,3.768.228C693.157,182.422,693.909,176.806,696.925,176.656Z" transform="translate(-227.417 -0.252)" fill="#cbffea"/>
    <path id="Pfad_96" data-name="Pfad 96" d="M703.13,176.852a5.437,5.437,0,0,0-3.54-.227c-1.51.623-2.626-.108-3.768,5.766,0,0,1.051,1.721,5.314.483C701.136,182.874,704.276,178.6,703.13,176.852Z" transform="translate(-230.082 -0.221)" fill="#d4f4ff"/>
    <path id="Pfad_97" data-name="Pfad 97" d="M699.305,318.932c-.041.035-.076.07-.105.1.035-.041.076-.076.111-.111Z" transform="translate(-231.481 -59.263)"/>
    <path id="Pfad_98" data-name="Pfad 98" d="M469.956,315.98c-4.036,4.334-99.9,80.908-99.9,80.908l-70.886,57.127s-8,9.495-20.94,7.181c0,0-5.529-1.423-17.344-9.272s-75.378-51.445-75.378-51.445l-38.9-26.973a18.63,18.63,0,0,1-4.118-4.34.947.947,0,0,1-.059-.105c-.141-.258-.275-.539-.416-.832a.018.018,0,0,1-.006-.012c-1.47-3.128-2.73-7.726.135-11.258,0,0,2.759-2.841,9.752-6.853-.07.053-.223.164-.433.322-.076.059-.164.123-.258.2-.047.029-.088.064-.135.1-.445.34-1.025.785-1.663,1.318-.6.5-1.259,1.078-1.9,1.7l-.006.006-.012.012-.018.018-.029.029a.581.581,0,0,1-.059.064c-.094.088-.187.182-.269.275-.035.029-.07.064-.105.1l-.1.105c-.31.322-.615.65-.9.99a3.041,3.041,0,0,0-.258.223.981.981,0,0,0-.123.105l-.035.035-.029.023-.006.012-.023.023a.156.156,0,0,0-.035.029c-.07.07-.146.141-.217.211s-.117.129-.17.193l-.029.035a6.224,6.224,0,0,0-1.523,2.876,1.419,1.419,0,0,0-.07.205c-.006.006-.006.006-.006.012v.012a3.266,3.266,0,0,0-.187,1.4,1.948,1.948,0,0,0,.211.685.146.146,0,0,0,.006.047,1.546,1.546,0,0,0,.141.7c.006.006.006.012.006.023.053.211.117.428.187.65.035,0,.141.111.31.316l.006.006c.012.012.023.029.041.047l.012.012v.006c.486.592,1.429,1.8,2.765,3.186a.277.277,0,0,0,.059.059,28.163,28.163,0,0,0,4.381,3.749.624.624,0,0,1,.064.041c1.7,1.324,3.772,2.823,6.279,4.51.006.006.018.012.023.018s.006.012.012.012a.006.006,0,0,0,.006.006l18.158,12.248,2.062,1.388,1.968,1.336c.381.252.756.5,1.136.761l2.056,1.388c9.1,6.139,17.636,11.9,21.7,14.638.187.129.369.252.539.363.972.656,1.611,1.089,1.845,1.248.029.018.053.035.07.047a.3.3,0,0,0,.029.018l57.414,38.729c.006,0,.006.006.012.012a.37.37,0,0,1,.059.041c.029.018.07.047.117.082.328.24,1.066.761,2.126,1.435a.954.954,0,0,1,.1.064.541.541,0,0,1,.047.029l1.675,1.13-1.57-1.066c3.222,2.021,9.1,5.2,15.329,6.156v.006h.012c.006-.006.012,0,.018,0,.059.012.193.035.41.059.035.006.076.006.111.012,1.558.152,6.226.211,11.926-3.462a.322.322,0,0,0,.053-.041c.246-.152.492-.322.738-.492a30.627,30.627,0,0,0,3.1-2.484l.012-.012c.182-.146.369-.3.562-.451.264-.2.533-.428.82-.65.428-.346.879-.7,1.353-1.084,10.133-8.1,10.877-8.692,10.877-8.692l97.162-77.668,29.386-23.769L465.7,314.7l1.611-1.3.047-.041s.006,0,.012-.012v-.006c.07-.07.146-.135.223-.211.023-.018.047-.041.07-.059l.053-.047a.9.9,0,0,0,.105-.105,19.193,19.193,0,0,0,4.891-8.517c.006.023.006.041.012.07v.012C472.991,306.444,473.155,312.542,469.956,315.98Z" transform="translate(0 -53.248)" fill="#516599"/>
    <path id="Pfad_99" data-name="Pfad 99" d="M148.234,391.26c-1.8,1.619-2.567,3.067-2.624,4.4.023-.2.059-.392.094-.574a7.124,7.124,0,0,1,2.448-3.766A.789.789,0,0,1,148.234,391.26Z" transform="translate(-2.148 -89.231)" fill="#a9ffea"/>
    <path id="Pfad_100" data-name="Pfad 100" d="M145.686,400.768v.029a.145.145,0,0,1-.006-.047A.022.022,0,0,0,145.686,400.768Z" transform="translate(-2.177 -93.163)" fill="#177e00"/>
    <path id="Pfad_101" data-name="Pfad 101" d="M148.218,390.37a14.253,14.253,0,0,0-2.448,3.766A6.751,6.751,0,0,1,148.218,390.37Z" transform="translate(-2.214 -88.863)" fill="#177e00"/>
    <path id="Pfad_102" data-name="Pfad 102" d="M383.282,560.266h-.012v-.006A.018.018,0,0,1,383.282,560.266Z" transform="translate(-100.602 -159.242)" fill="#177e00"/>
    <path id="Pfad_103" data-name="Pfad 103" d="M145.686,400.768v.029a.145.145,0,0,1-.006-.047A.022.022,0,0,0,145.686,400.768Z" transform="translate(-2.177 -93.163)"/>
    <path id="Pfad_104" data-name="Pfad 104" d="M148.218,390.37a14.253,14.253,0,0,0-2.448,3.766A6.751,6.751,0,0,1,148.218,390.37Z" transform="translate(-2.214 -88.863)" fill="#516599"/>
    <path id="Pfad_105" data-name="Pfad 105" d="M383.282,560.266h-.012v-.006A.018.018,0,0,1,383.282,560.266Z" transform="translate(-100.602 -159.242)"/>
    <path id="Pfad_106" data-name="Pfad 106" d="M706.888,176.83a8.838,8.838,0,0,1,5.683,0,5.531,5.531,0,0,0-1.894,3.3c-.1,1.805-.1,2.72-.1,2.72s-2.044,1.712-5.683,0C704.894,182.852,704.994,177.755,706.888,176.83Z" transform="translate(-233.84 -0.199)" fill="#c8feff"/>
    <path id="Pfad_107" data-name="Pfad 107" d="M716.32,176.631a4.849,4.849,0,0,0-1.994,6.022s1.09,1.578,4.174.269c0,0-1.607-4.86,2.767-6.468C721.268,176.454,719.953,175.014,716.32,176.631Z" transform="translate(-237.589)" fill="#cbffea"/>
    <path id="Pfad_108" data-name="Pfad 108" d="M725.405,183.119a4.152,4.152,0,0,1-3.963-.179s-1.944-4.8,2.767-6.468c0,0,3.7-1.514,5.421.411C729.63,176.883,725.05,179.241,725.405,183.119Z" transform="translate(-240.53 -0.018)" fill="#d4f4ff"/>
    <path id="Pfad_109" data-name="Pfad 109" d="M732.629,177.534s3.571-.486,4.636,1.384a6.8,6.8,0,0,0-3.328,5.248,4.591,4.591,0,0,1-5.533-.4S727.171,178.936,732.629,177.534Z" transform="translate(-243.53 -0.669)" fill="#c8feff"/>
    <path id="Pfad_110" data-name="Pfad 110" d="M741.264,179.876s-3.253.849-3.328,5.248c0,0,.356,1.651,2.767,1.669,0,0,2.691-5.744,5.084-5.386C745.787,181.406,744.666,179.353,741.264,179.876Z" transform="translate(-247.528 -1.627)" fill="#cbffea"/>
    <path id="Pfad_111" data-name="Pfad 111" d="M747.071,189.877s-3.2-.356-4.411-1.944c0,0,1.345-5.557,5.084-5.386s4.187,2.4,4.187,2.4S748.53,185.427,747.071,189.877Z" transform="translate(-249.485 -2.767)" fill="#d4f4ff"/>
    <path id="Pfad_112" data-name="Pfad 112" d="M755.051,186.638s2.954.117,3.889,1.928c0,0-4.132,2.39-4.15,5.026,0,0-2.786,1.2-4.6-2.019C750.191,191.573,750.448,186.881,755.051,186.638Z" transform="translate(-252.605 -4.464)" fill="#c8feff"/>
    <path id="Pfad_113" data-name="Pfad 113" d="M762.367,199.218s-4.683-2.91-4.337-4.262.486-4.445,4.15-5.026l.715.539S763.844,195.872,762.367,199.218Z" transform="translate(-255.845 -5.827)" fill="#cbffea"/>
    <path id="Pfad_114" data-name="Pfad 114" d="M686.742,202.971a4.454,4.454,0,0,1,3.453-.489s-2.211,4.98-2.009,6.908Z" transform="translate(-226.32 -10.973)" fill="#d4f4ff"/>
    <path id="Pfad_115" data-name="Pfad 115" d="M693.566,208.5s-3.183,2.375-4.6.477,2.009-6.908,2.009-6.908,1.77-1.121,5.234-.548A11.89,11.89,0,0,0,693.566,208.5Z" transform="translate(-227.099 -10.562)" fill="#c8feff"/>
    <path id="Pfad_116" data-name="Pfad 116" d="M699.571,201.251a8.232,8.232,0,0,1,4.961-.324,7.041,7.041,0,0,0-3.016,6.63,3.823,3.823,0,0,1-4.586.673A6.523,6.523,0,0,1,699.571,201.251Z" transform="translate(-230.462 -10.291)" fill="#cbffea"/>
    <path id="Pfad_117" data-name="Pfad 117" d="M707.79,200.914a7.305,7.305,0,0,1,4.337.161s-2.867,3.216-3.091,5.97c0,0-1.283,1.707-4.262.5C704.774,207.544,703.527,202.721,707.79,200.914Z" transform="translate(-233.72 -10.278)" fill="#d4f4ff"/>
    <path id="Pfad_118" data-name="Pfad 118" d="M720.093,202.344s-1.408-1.05-4.91-.986c0,0-3.9,3.192-3.091,5.97a6.171,6.171,0,0,0,4.112.931S716.69,202.73,720.093,202.344Z" transform="translate(-236.776 -10.56)" fill="#c8feff"/>
    <path id="Pfad_119" data-name="Pfad 119" d="M723.08,203.043s-3.552-.182-3.889,5.916c0,0,2.667,1.848,3.889.814s4.337-4.3,4.013-5.384S723.08,203.043,723.08,203.043Z" transform="translate(-239.763 -11.259)" fill="#cbffea"/>
    <path id="Pfad_120" data-name="Pfad 120" d="M731.749,206.786s-4.661-1.292-4.86,3.195,3.789,3.489,3.789,3.489,2.916-3.577,4.013-3.864.773-.423.773-.423S733.793,206.707,731.749,206.786Z" transform="translate(-242.948 -12.739)" fill="#d4f4ff"/>
    <path id="Pfad_121" data-name="Pfad 121" d="M741.686,214.035s-1.682-2.829-3.539-3.041-4.786,4.287-4.786,4.287a7.249,7.249,0,0,0,2.891,2.667.489.489,0,0,0,.249.125C736.615,218.073,741.6,215.768,741.686,214.035Z" transform="translate(-245.633 -14.551)" fill="#c8feff"/>
    <path id="Pfad_122" data-name="Pfad 122" d="M743.892,216.191s-5.6,2.368-5.184,4.038a5.867,5.867,0,0,0,3.365,3.739s4.823-.947,5.533-4.811C747.606,219.157,746.161,216.441,743.892,216.191Z" transform="translate(-247.839 -16.706)" fill="#cbffea"/>
    <path id="Pfad_123" data-name="Pfad 123" d="M747.42,230s-3.527-1.907-2.991-3.938,3.34-4.935,5.533-4.811,3.938,4.5,3.789,4.96S748.866,229.964,747.42,230Z" transform="translate(-250.195 -18.801)" fill="#d4f4ff"/>
    <path id="Pfad_124" data-name="Pfad 124" d="M755.9,229.043s-6.788,1.184-6.34,4.187,4.562,4.512,4.562,4.512,4.6-2.131,5.06-4.935S755.9,229.043,755.9,229.043Z" transform="translate(-252.334 -22.03)" fill="#c8feff"/>
    <path id="Pfad_125" data-name="Pfad 125" d="M147.948,389.333s-5.75,4.714-2.809,9.239l-.8.785-1.868-2.368.609-2.644Z" transform="translate(-0.846 -88.433)" fill="#516599"/>
    <g id="Gruppe_33" data-name="Gruppe 33" transform="translate(363.291 200.158)">
      <path id="Pfad_126" data-name="Pfad 126" d="M543.347,275.216l-22.432-14.333,4.786-4.013,22.059,14.2Z" transform="translate(-520.915 -233.716)" fill="#fff"/>
      <path id="Pfad_127" data-name="Pfad 127" d="M584.759,240.494c0,2.214-2.466,4.012-5.506,4.012a6.965,6.965,0,0,1-2.788-.556l.006.012-20.7,9.272L533.49,238.877l10.338-14.936a3.423,3.423,0,0,1-1.306-2.589c0-2.214,2.466-4.012,5.512-4.012s5.506,1.8,5.506,4.012-2.466,4.012-5.506,4.012a6.646,6.646,0,0,1-1.037-.076l.176.076c-5,6.648-2.618,10.895.3,12.013s11.439-4.34,11.439-4.34a3.168,3.168,0,0,1-.662-1.9c0-2.22,2.472-4.018,5.512-4.018s5.506,1.8,5.506,4.018-2.466,4.012-5.506,4.012a7.256,7.256,0,0,1-2.179-.328c-.562.41-1.265.955-2.144,1.663-3.667,2.952-4.153,6.244-.076,8.025,3.456,1.511,11.908-2.425,14.4-3.655a2.38,2.38,0,0,1-.023-.357c0-2.214,2.466-4.012,5.512-4.012S584.759,238.28,584.759,240.494Z" transform="translate(-526.124 -217.34)" fill="#fff"/>
    </g>
  </g>
</svg>
