<svg xmlns="http://www.w3.org/2000/svg" width="83.491" height="107.333" viewBox="0 0 83.491 107.333">
  <g id="Gruppe_30" data-name="Gruppe 30" transform="translate(-782.63 -119.745)">
    <path id="Pfad_75" data-name="Pfad 75" d="M791.129,156.9s-6.6,17.26-7.563,19.255-2.614,3.232,3.713,6.189,9.009,3.782,9.765,2.614,1.308-7.29,2.2-8.529,1.377-5.432,0-9.763-3.163-9.765-2.2-11.278,1.719-4.126.825-4.678-.549.687-1.788,1.1A12.376,12.376,0,0,0,791.129,156.9Z" transform="translate(0 35.601)"/>
    <path id="Pfad_76" data-name="Pfad 76" d="M803.152,170.579c-1.659,1.659-3.771,3.512-6.055,1.939a6.049,6.049,0,0,1-2.607-3.318s3.706-.948,4.805-1.358c1.1-.431,3.232-1.681,3.857-1.293A2.71,2.71,0,0,1,803.152,170.579Z" transform="translate(13.696 53.964)"/>
    <path id="Pfad_77" data-name="Pfad 77" d="M837.787,205.575c0,3.232-2.133,4.676-3.706,4.331-1.595-.345-7.434.474-10.041,0-2.629-.474-2.219-7.219-1.939-9.7s1.789-16.721,1.789-18.574,3.3-3.577,3.3-3.577.97-3.706.151-4.805c-.84-1.12-1.314-7.24-1.659-8.684s-1.788-24.758-3.017-25.168c-1.25-.409-1.056,7.025-1.056,7.025s.021,37.816-.733,39.6-.84,13.338-1.379,14.588c-.56,1.228-.69,4.4-.69,6.874s4.547,4.4,2.069,6.594-6.809,2.349-8.382-.776c-1.573-3.146.539-5.344,1.767-7.219,1.25-1.9.84-2.456.84-2.456.819-2.435-2.974-6.744-3.426-8.253s.108-25.1-1.12-24.888c-1.228.194-.905,18.833-.905,18.833a19.587,19.587,0,0,1-2.8-7.154c-.56-3.771-6.744-8.921-6.744-8.921.345-33.442.216-34.045-.819-34.11-1.034-.086-.56,25.577-.56,28.055a15.134,15.134,0,0,1-1.637,5.624c-.69.948-.754,2.974-.646,4.611l.905-.6s3.922.474,5.085,2.607c1.185,2.133,10.386,24.758,10.041,25.3-.345.56-2.133,1.034-5.495,2.629-3.361,1.573-9.481,3.3-9.761,2.2s-5.581-25.319-5.926-26.956c-.345-1.659,2.068-3.168,2.068-3.168l1.595-1.034v-.022c-.323-1.875-4.547-4.525-5.171-6.141-.625-1.595.97-22.647.69-30.21s4.2-11.636,6.184-12.519c2-.9,22.711-.69,22.711-.69,8.792,1.573,9.546,4.266,11.14,7.693,1.573,3.448,4.331,35.963,2.737,37.816a7.289,7.289,0,0,0-1.767,3.555,10.794,10.794,0,0,1,1.487.172c2.564.474,3.1,5.646,3.038,9.072C835.934,190.578,837.787,202.343,837.787,205.575Z" transform="translate(8.086 10.456)"/>
    <path id="Pfad_78" data-name="Pfad 78" d="M810.574,150.632s4.057,3.988,4.126,9.078.069,13.2.825,14.168,2.683,4.4,3.577,5.5,2.683,3.575,5.915,1.513a66.52,66.52,0,0,0,8.664-7.014c.412-.552.207-2.174-2.064-5.111s-12.1-15.323-12.1-15.323-2.818-3.361-4.4-3.5A17.719,17.719,0,0,0,810.574,150.632Z" transform="translate(32.269 34.856)"/>
    <circle id="Ellipse_29" data-name="Ellipse 29" cx="8.287" cy="8.287" r="8.287" transform="translate(811.073 119.745)"/>
  </g>
</svg>
