<svg xmlns="http://www.w3.org/2000/svg" width="65.4" height="272.568" viewBox="0 0 65.4 272.568">
  <g id="Gruppe_35" data-name="Gruppe 35" transform="translate(-328.528 -146.02)">
    <path id="Pfad_128" data-name="Pfad 128" d="M362.141,525.864l18.471-.741s.509,8.715-5.139,9.2-11.43.31-12.626-.93S362,528.738,362.141,525.864Z" transform="translate(-10.235 -115.988)" fill="#f4ffd6"/>
    <path id="Pfad_129" data-name="Pfad 129" d="M330.106,314.127v15.594s3.721,4.43,11.7,3.308a24.457,24.457,0,0,0,4.371-1.654v-17.72a13.776,13.776,0,0,0-12.877-3.78l-2.717,1.3A5.934,5.934,0,0,0,330.106,314.127Z" transform="translate(-0.483 -50.031)" fill="#b7ffe8"/>
    <path id="Pfad_130" data-name="Pfad 130" d="M353.255,314.321s18.666-5.847,30.952,0v18.9s-8.27,7.088-30.952-1.181Z" transform="translate(-7.565 -50.697)" fill="#e5ffeb"/>
    <path id="Pfad_131" data-name="Pfad 131" d="M397.851,313.5s6.911-7.974,15-2.6v18.43s-3.367,6.616-15,3.071Z" transform="translate(-21.21 -49.877)" fill="#b7ffe8"/>
    <path id="Pfad_132" data-name="Pfad 132" d="M330.787,309.992l4.726-3.426s40.491,2.481,51.448-.886c0,0,4.7,2.746,5.375,4.193,0,0-6.557-5.05-15,2.6,0,0-8.535-5.493-30.952,0C346.381,312.473,339.322,305.473,330.787,309.992Z" transform="translate(-0.691 -48.849)" fill="#cbffe4"/>
    <path id="Pfad_133" data-name="Pfad 133" d="M337.043,342.2s1.476,6.564,7.058,7.775,40.52,0,40.52,0,3.216-.371,6.924-8.248c0,0-3.35,2.282-12.3.451,0,0-8.712,6.764-30.952-1.181C348.295,341,344.1,343.554,337.043,342.2Z" transform="translate(-2.605 -59.655)" fill="#74a7a5"/>
    <path id="Pfad_134" data-name="Pfad 134" d="M348.128,354.081s.339,35.124.723,35.98,3.721,3.6,17.248,2.835,18.134-.207,18.784-1.417.65-37.428.65-37.428Z" transform="translate(-5.997 -63.648)" fill="#fcffe5"/>
    <path id="Pfad_135" data-name="Pfad 135" d="M350.319,411.427s2.063-2.671,3.619-2.372,18.327.376,30.11-.133a3.553,3.553,0,0,1,1.122,2.267S367.272,412.269,350.319,411.427Z" transform="translate(-6.667 -80.436)" fill="#e3ffb4"/>
    <path id="Pfad_136" data-name="Pfad 136" d="M350.273,412.427a6.536,6.536,0,0,0,2.51,6.32s28.338.178,29.327,0,3.9-2.466,3.013-6.557Z" transform="translate(-6.621 -81.436)" fill="#feffe2"/>
    <path id="Pfad_137" data-name="Pfad 137" d="M353.012,421.637a8.586,8.586,0,0,0-2.1,2.51h34.6a3.97,3.97,0,0,0-3.179-2.51Z" transform="translate(-6.85 -84.326)" fill="#e3ffb4"/>
    <path id="Pfad_138" data-name="Pfad 138" d="M353.784,432.726s-4.062-3.98-2.953-7.472h34.6s-.373,5.892-2.528,7.325Z" transform="translate(-6.765 -85.433)" fill="#feffe2"/>
    <path id="Pfad_139" data-name="Pfad 139" d="M353.868,435.955s-2.51,1.462-2.953,2.422h34.968s-1.934-2.363-2.894-2.569Z" transform="translate(-6.85 -88.662)" fill="#e3ffb4"/>
    <path id="Pfad_140" data-name="Pfad 140" d="M350.889,439.51s-.738,4.327,2.983,6.527c0,0,27.747,0,28.5-.355a8.845,8.845,0,0,0,3.485-6.172Z" transform="translate(-6.823 -89.795)" fill="#feffe2"/>
    <path id="Pfad_141" data-name="Pfad 141" d="M353.9,448.758a8.093,8.093,0,0,0-2.983,2.687h34.466s-1.269-2.555-2.982-3.042Z" transform="translate(-6.85 -92.515)" fill="#e3ffb4"/>
    <path id="Pfad_142" data-name="Pfad 142" d="M353.62,459.608s-3.751-3.456-2.776-6.822h34.466s.857,4.858-1.919,6.822Z" transform="translate(-6.778 -93.856)" fill="#feffe2"/>
    <path id="Pfad_143" data-name="Pfad 143" d="M384.9,465.047H351.383a4.146,4.146,0,0,1,2.451-2.451s29.371-.1,29.77,0A4.072,4.072,0,0,1,384.9,465.047Z" transform="translate(-6.993 -96.844)" fill="#e3ffb4"/>
    <path id="Pfad_144" data-name="Pfad 144" d="M351.378,466.148s-.458,6.571,4.43,10.455c0,0,23.8.029,24.336-.148s4.816-6.44,4.755-10.307Z" transform="translate(-6.988 -97.945)" fill="#feffe2"/>
    <path id="Pfad_145" data-name="Pfad 145" d="M357.766,481.147a3.815,3.815,0,0,0,2.3,3.515c2.348.886,20.452.088,20.969,0s1.654-2.673,1.063-3.662Z" transform="translate(-8.946 -102.488)" fill="#e3ffb4"/>
    <path id="Pfad_146" data-name="Pfad 146" d="M359.7,485.624s-.7,9.652-.287,11.823,17.366,2.982,22.091.945c0,0,.384-10.2,0-12.315C381.5,486.077,365.255,486.93,359.7,485.624Z" transform="translate(-9.409 -103.903)" fill="#feffe2"/>
    <path id="Pfad_147" data-name="Pfad 147" d="M365.735,146.02v5.892s-10.777-.014-12.36,5.936a19.06,19.06,0,0,0-.066,9.214h-7.115s-1.081-11.43,4.878-16.169S365.735,146.02,365.735,146.02Z" transform="translate(-5.381 0)" fill="#aeffc5"/>
    <path id="Pfad_148" data-name="Pfad 148" d="M355.463,169.66h3.81s-2.725-13.555,9.3-15.15c0,0-11.049.062-12.36,5.936A34.676,34.676,0,0,0,355.463,169.66Z" transform="translate(-8.223 -2.598)" fill="#8cffa3"/>
    <path id="Pfad_149" data-name="Pfad 149" d="M346.1,177.27a4.8,4.8,0,0,0,0,3.278c.669,1.595,29.686,1.684,41.293.443a17.085,17.085,0,0,0,.355-3.721l-.177-.931H346.1Z" transform="translate(-5.284 -9.276)" fill="#74a7a5"/>
    <path id="Pfad_150" data-name="Pfad 150" d="M360.979,174.248s.974-4.607,4.917-4.43,9.946-.785,11.119,0,3.19,4.435,3.19,4.435Z" transform="translate(-9.929 -7.185)" fill="#00536c"/>
    <path id="Pfad_151" data-name="Pfad 151" d="M336.239,261.935s-7.413.325-7.619,5.611,0,17.307,0,17.307a138.727,138.727,0,0,0,36.149,2.717c19.462-1.21,28.028-1.654,28.588-2.953s1.285-18.754-1-20.438-5.914-2.924-8.986-1-4.578,3.456-23.686,3.131S338.188,265.45,336.239,261.935Z" transform="translate(0 -35.465)" fill="#00536c"/>
    <path id="Pfad_152" data-name="Pfad 152" d="M328.66,294.852s6.231,5.464,19.374,5.907,33.226-1,36.5-2.127a88.489,88.489,0,0,0,8.86-4.016c0,.015-24.687,2.6-33.432,2.6C351.173,297.212,334.308,296.636,328.66,294.852Z" transform="translate(-0.041 -45.464)" fill="#74a7a5"/>
    <path id="Pfad_153" data-name="Pfad 153" d="M373.428,305.931s9.717-.149,15.239-1.655c0,0,.6-3.7-4.486-3.116s-26.9,2-32.136,1.662a100.194,100.194,0,0,1-12.227-1.724c-.433-.13-5.4,1.317-2.6,4.064C337.22,305.161,356.391,306.46,373.428,305.931Z" transform="translate(-2.398 -47.444)" fill="#00536c"/>
    <path id="Pfad_154" data-name="Pfad 154" d="M363.149,510.316a43.515,43.515,0,0,0,17.189-.221l.237-5.449s-11.126,1.546-18.252-.368C362.322,504.278,362,509.32,363.149,510.316Z" transform="translate(-10.327 -109.611)" fill="#e3ffb4"/>
    <path id="Pfad_155" data-name="Pfad 155" d="M362.627,512.88a9.2,9.2,0,0,0-1.993,5.094c-.133,2.946,0,1.506,0,1.506a57.22,57.22,0,0,0,20.378.62s.576-5.382-1.2-7.442C379.816,512.659,369.051,514.5,362.627,512.88Z" transform="translate(-9.805 -112.175)" fill="#f4ffd6"/>
    <path id="Pfad_156" data-name="Pfad 156" d="M360.647,522.488c-.052.067-.334,2.862,2.88,3.19,3.086.315,12.315.82,15.549-.31a6.144,6.144,0,0,0,1.949-2.259S367.558,524.5,360.647,522.488Z" transform="translate(-9.818 -115.182)" fill="#e3ffb4"/>
    <rect id="Rechteck_84" data-name="Rechteck 84" width="5.803" height="5.892" transform="translate(360.353 146.02)" fill="#d4f2ff"/>
    <path id="Pfad_157" data-name="Pfad 157" d="M369.378,155.4a14.42,14.42,0,0,0,.417,2.255h6.734a2.707,2.707,0,0,0,.576-3.189s-5.311-.255-5.811.085A13.01,13.01,0,0,1,369.378,155.4Z" transform="translate(-12.498 -2.557)" fill="#eafcff"/>
    <path id="Pfad_158" data-name="Pfad 158" d="M370,162.073a2.241,2.241,0,0,1-.221-2.968h6.734s.731,1.994-.443,2.968Z" transform="translate(-12.484 -4.003)" fill="#74a7a5"/>
    <path id="Pfad_159" data-name="Pfad 159" d="M371.646,166.169s-1.55,0-1.772-.532-.487-2.06.221-2.3a50.066,50.066,0,0,1,6.069,0s1.313,1.462.668,2.481c0,0,.351.089-1,.355A20.746,20.746,0,0,1,371.646,166.169Z" transform="translate(-12.577 -5.264)" fill="#eafcff"/>
    <path id="Pfad_160" data-name="Pfad 160" d="M366.735,169.012s1.986-.827,2.251-2.311c0,0,3.9,1.152,6.958.177l2.832,2.077Z" transform="translate(-11.69 -6.327)" fill="#74a7a5"/>
    <path id="Pfad_161" data-name="Pfad 161" d="M340.935,186.39a2.348,2.348,0,0,1,1.152-2.082,20.454,20.454,0,0,0,2.52-1.905s17.083,2.481,28.091,2.392,12.006,1.019,12.006,1.019-19.337.687-23.568.576-11.186,0-12.847.012S342.153,187.121,340.935,186.39Z" transform="translate(-3.795 -11.132)" fill="#cbffdb"/>
    <path id="Pfad_162" data-name="Pfad 162" d="M391.448,183.042s1.4.84,1.507,1.716a2.824,2.824,0,0,1,0,1.163l-2.7.089a31.761,31.761,0,0,0-7.665-.985c-4.341-.034-13.109-.134-16.186-.5s-7.336-.808-7.336-.808,16.083.132,17.632.1S391.448,183.042,391.448,183.042Z" transform="translate(-9.343 -11.327)" fill="#00536c"/>
    <path id="Pfad_163" data-name="Pfad 163" d="M340.936,187.894s.089,1.019,6.423,1.063,25.517-.377,27.556-.266,9.79-1.374,9.79-1.374l-16.879.507-20.11.1S341.977,188.824,340.936,187.894Z" transform="translate(-3.796 -12.635)" fill="#00536c"/>
    <path id="Pfad_164" data-name="Pfad 164" d="M386.61,188.735s.753,1.351-3.721,1.595-22.461-.044-24.986,0-8.971-.067-11.075,0-5.892-2.437-5.892-2.437,3.544,1.528,6.423,1.063,20.246-.228,20.246-.228,8.394-.054,9.172-.146,7.328-1.247,7.927-1.266S386.588,187.473,386.61,188.735Z" transform="translate(-3.796 -12.635)" fill="#aeffc5"/>
    <path id="Pfad_165" data-name="Pfad 165" d="M343.1,192.135s11.076.93,16.17.443,20.157-1.895,20.157-1.895H348.551a26.2,26.2,0,0,1-4.114-.634c-.781-.339-.969-.426-.969-.426l-2.626-1.476S339.6,191.581,343.1,192.135Z" transform="translate(-3.702 -12.889)" fill="#00536c"/>
    <path id="Pfad_166" data-name="Pfad 166" d="M366.728,267.177s22.2-1.961,23.3-1.979,3.5-.115,3.5-.115a19.179,19.179,0,0,1-7.84,2.094C380.834,267.505,367.861,267.558,366.728,267.177Z" transform="translate(-11.688 -36.428)" fill="#002553"/>
    <path id="Pfad_167" data-name="Pfad 167" d="M344.738,195.233a1.028,1.028,0,0,1-.573-1.339l6.738.408S344.911,194.778,344.738,195.233Z" transform="translate(-4.766 -14.647)" fill="#002553"/>
    <path id="Pfad_168" data-name="Pfad 168" d="M388.785,194.895a2.348,2.348,0,0,0-1.152-2.082,20.451,20.451,0,0,1-2.519-1.9s-17.083,2.481-28.092,2.392-12.006,1.019-12.006,1.019,19.337.686,23.568.575,11.186,0,12.847.012S387.567,195.626,388.785,194.895Z" transform="translate(-5.045 -13.734)" fill="#cbffdb"/>
    <path id="Pfad_169" data-name="Pfad 169" d="M388.785,196.4s-.089,1.019-6.423,1.063-25.517-.376-27.556-.266-9.79-1.373-9.79-1.373l16.879.506,20.11.1S387.744,197.329,388.785,196.4Z" transform="translate(-5.045 -15.237)" fill="#00536c"/>
    <path id="Pfad_170" data-name="Pfad 170" d="M342.25,197.24s-.753,1.351,3.721,1.595,22.461-.044,24.986,0,8.971-.067,11.076,0,5.892-2.437,5.892-2.437-3.544,1.529-6.423,1.063-20.246-.227-20.246-.227-8.394-.054-9.172-.146-7.328-1.246-7.927-1.265S342.272,195.977,342.25,197.24Z" transform="translate(-4.184 -15.237)" fill="#aeffc5"/>
    <path id="Pfad_171" data-name="Pfad 171" d="M388.811,200.639s-11.076.931-16.17.443-20.157-1.894-20.157-1.894h30.878a26.213,26.213,0,0,0,4.113-.634c.781-.338.969-.426.969-.426l2.626-1.476S392.31,200.085,388.811,200.639Z" transform="translate(-7.33 -15.491)" fill="#00536c"/>
    <path id="Pfad_172" data-name="Pfad 172" d="M338.684,203.8a2.29,2.29,0,0,1,1.24-2.082,21.914,21.914,0,0,0,2.714-1.9s18.4,2.48,30.258,2.392,12.931,1.019,12.931,1.019-20.828.686-25.385.575-12.049,0-13.838.012S340,204.529,338.684,203.8Z" transform="translate(-3.107 -16.458)" fill="#cbffdb"/>
    <path id="Pfad_173" data-name="Pfad 173" d="M338.685,205.3s.1,1.019,6.919,1.063,27.485-.376,29.68-.266,10.545-1.373,10.545-1.373l-18.181.506-21.66.1S339.807,206.232,338.685,205.3Z" transform="translate(-3.108 -17.961)" fill="#00536c"/>
    <path id="Pfad_174" data-name="Pfad 174" d="M387.881,206.143s.811,1.351-4.008,1.595-24.192-.044-26.912,0-9.663-.067-11.929,0-6.346-2.437-6.346-2.437,3.817,1.529,6.919,1.063,21.807-.227,21.807-.227,9.041-.054,9.88-.146,7.893-1.246,8.539-1.265S387.857,204.88,387.881,206.143Z" transform="translate(-3.108 -17.961)" fill="#aeffc5"/>
    <path id="Pfad_175" data-name="Pfad 175" d="M341.017,209.542s11.929.931,17.417.443,21.711-1.894,21.711-1.894H346.887a30.257,30.257,0,0,1-4.43-.634c-.841-.338-1.044-.426-1.044-.426l-2.829-1.476S337.248,208.988,341.017,209.542Z" transform="translate(-3.006 -18.215)" fill="#00536c"/>
    <path id="Pfad_176" data-name="Pfad 176" d="M389.009,212.882A2.306,2.306,0,0,0,387.8,210.8a21.426,21.426,0,0,1-2.653-1.905s-17.981,2.481-29.568,2.392-12.637,1.019-12.637,1.019,20.354.686,24.807.576,11.774,0,13.523.012S387.727,213.613,389.009,212.882Z" transform="translate(-4.41 -19.237)" fill="#cbffdb"/>
    <path id="Pfad_177" data-name="Pfad 177" d="M389.009,214.386s-.093,1.019-6.761,1.063-26.859-.377-29-.266-10.305-1.374-10.305-1.374l17.766.507,21.167.1S387.914,215.316,389.009,214.386Z" transform="translate(-4.41 -20.741)" fill="#00536c"/>
    <path id="Pfad_178" data-name="Pfad 178" d="M340.029,215.227s-.793,1.351,3.917,1.595,23.641-.044,26.3,0,9.443-.066,11.657,0,6.2-2.436,6.2-2.436-3.73,1.528-6.761,1.063-21.31-.228-21.31-.228-8.835-.054-9.655-.146-7.714-1.247-8.344-1.266S340.052,213.964,340.029,215.227Z" transform="translate(-3.504 -20.74)" fill="#aeffc5"/>
    <path id="Pfad_179" data-name="Pfad 179" d="M389.037,218.627s-11.657.931-17.019.443-21.216-1.895-21.216-1.895h32.5a28.928,28.928,0,0,0,4.329-.634c.822-.339,1.02-.427,1.02-.427l2.764-1.475S392.721,218.073,389.037,218.627Z" transform="translate(-6.815 -20.995)" fill="#00536c"/>
    <path id="Pfad_180" data-name="Pfad 180" d="M338.561,222.28a2.29,2.29,0,0,1,1.24-2.082,21.883,21.883,0,0,0,2.714-1.905s18.4,2.481,30.258,2.392,12.931,1.019,12.931,1.019-20.829.686-25.385.576-12.049,0-13.838.012S339.873,223.011,338.561,222.28Z" transform="translate(-3.069 -22.112)" fill="#cbffdb"/>
    <path id="Pfad_181" data-name="Pfad 181" d="M338.562,223.784s.1,1.019,6.919,1.063,27.485-.377,29.679-.266,10.546-1.374,10.546-1.374l-18.181.507-21.66.1S339.683,224.714,338.562,223.784Z" transform="translate(-3.07 -23.616)" fill="#00536c"/>
    <path id="Pfad_182" data-name="Pfad 182" d="M387.758,224.625s.811,1.351-4.008,1.594-24.192-.044-26.912,0-9.663-.066-11.929,0-6.346-2.436-6.346-2.436,3.817,1.528,6.919,1.063,21.807-.228,21.807-.228,9.041-.054,9.88-.146,7.893-1.247,8.539-1.266S387.734,223.362,387.758,224.625Z" transform="translate(-3.07 -23.615)" fill="#aeffc5"/>
    <path id="Pfad_183" data-name="Pfad 183" d="M340.894,228.025s11.929.931,17.417.443,21.711-1.895,21.711-1.895H346.764a30.257,30.257,0,0,1-4.431-.634c-.84-.339-1.044-.427-1.044-.427l-2.828-1.475S337.125,227.471,340.894,228.025Z" transform="translate(-2.969 -23.87)" fill="#00536c"/>
    <path id="Pfad_184" data-name="Pfad 184" d="M391.233,231.678a2.306,2.306,0,0,0-1.212-2.082,21.425,21.425,0,0,1-2.653-1.905s-17.981,2.481-29.568,2.392-12.636,1.019-12.636,1.019,20.354.686,24.807.576,11.774,0,13.523.012S389.951,232.409,391.233,231.678Z" transform="translate(-5.09 -24.988)" fill="#cbffdb"/>
    <path id="Pfad_185" data-name="Pfad 185" d="M391.233,233.182s-.093,1.019-6.761,1.063-26.859-.377-29-.266-10.305-1.374-10.305-1.374l17.766.507,21.167.1S390.137,234.112,391.233,233.182Z" transform="translate(-5.09 -26.491)" fill="#00536c"/>
    <path id="Pfad_186" data-name="Pfad 186" d="M342.253,234.023s-.793,1.351,3.917,1.595,23.641-.044,26.3,0,9.442-.067,11.657,0,6.2-2.437,6.2-2.437-3.73,1.528-6.761,1.063-21.311-.228-21.311-.228-8.834-.054-9.654-.146-7.714-1.247-8.344-1.266S342.276,232.761,342.253,234.023Z" transform="translate(-4.184 -26.491)" fill="#aeffc5"/>
    <path id="Pfad_187" data-name="Pfad 187" d="M391.261,237.423s-11.657.93-17.019.443-21.216-1.895-21.216-1.895h32.5a28.927,28.927,0,0,0,4.329-.634c.822-.339,1.02-.427,1.02-.427l2.764-1.475S394.944,236.869,391.261,237.423Z" transform="translate(-7.495 -26.745)" fill="#00536c"/>
    <path id="Pfad_188" data-name="Pfad 188" d="M339.335,241.076a2.29,2.29,0,0,1,1.24-2.082,21.884,21.884,0,0,0,2.714-1.905s18.4,2.481,30.258,2.392,12.931,1.019,12.931,1.019-20.828.687-25.385.576-12.048,0-13.838.012S340.647,241.807,339.335,241.076Z" transform="translate(-3.306 -27.863)" fill="#cbffdb"/>
    <path id="Pfad_189" data-name="Pfad 189" d="M339.336,242.58s.1,1.019,6.919,1.063,27.485-.377,29.679-.266S386.48,242,386.48,242l-18.181.507-21.66.1S340.457,243.51,339.336,242.58Z" transform="translate(-3.307 -29.367)" fill="#00536c"/>
    <path id="Pfad_190" data-name="Pfad 190" d="M388.532,243.421s.811,1.351-4.008,1.595-24.193-.044-26.912,0-9.663-.067-11.929,0-6.346-2.437-6.346-2.437,3.817,1.528,6.919,1.063,21.807-.228,21.807-.228,9.041-.054,9.88-.146,7.893-1.247,8.538-1.266S388.508,242.159,388.532,243.421Z" transform="translate(-3.307 -29.366)" fill="#aeffc5"/>
    <path id="Pfad_191" data-name="Pfad 191" d="M341.668,246.821s11.929.93,17.416.443,21.711-1.895,21.711-1.895H347.537a30.252,30.252,0,0,1-4.43-.634c-.841-.339-1.044-.426-1.044-.426l-2.828-1.476S337.9,246.267,341.668,246.821Z" transform="translate(-3.206 -29.621)" fill="#00536c"/>
    <path id="Pfad_192" data-name="Pfad 192" d="M388.582,250.474a2.306,2.306,0,0,0-1.212-2.082,21.388,21.388,0,0,1-2.652-1.905s-17.981,2.481-29.568,2.392-12.637,1.019-12.637,1.019,20.354.687,24.807.576,11.774,0,13.522.012S387.3,251.205,388.582,250.474Z" transform="translate(-4.279 -30.738)" fill="#cbffdb"/>
    <path id="Pfad_193" data-name="Pfad 193" d="M388.582,251.978s-.093,1.019-6.761,1.063-26.858-.377-29-.266-10.3-1.374-10.3-1.374l17.766.507,21.167.1S387.486,252.909,388.582,251.978Z" transform="translate(-4.279 -32.242)" fill="#00536c"/>
    <path id="Pfad_194" data-name="Pfad 194" d="M339.6,252.819s-.793,1.351,3.917,1.595,23.641-.044,26.3,0,9.442-.067,11.657,0,6.2-2.437,6.2-2.437-3.73,1.528-6.761,1.063-21.31-.228-21.31-.228-8.834-.054-9.655-.146-7.713-1.246-8.343-1.266S339.625,251.557,339.6,252.819Z" transform="translate(-3.373 -32.242)" fill="#aeffc5"/>
    <path id="Pfad_195" data-name="Pfad 195" d="M388.609,256.219s-11.658.93-17.02.443-21.216-1.894-21.216-1.894h32.5a28.958,28.958,0,0,0,4.329-.634c.822-.339,1.02-.426,1.02-.426l2.764-1.476S392.293,255.665,388.609,256.219Z" transform="translate(-6.684 -32.496)" fill="#00536c"/>
    <path id="Pfad_196" data-name="Pfad 196" d="M339.335,259.873a2.29,2.29,0,0,1,1.24-2.082,21.914,21.914,0,0,0,2.714-1.9s18.4,2.48,30.258,2.392,12.931,1.019,12.931,1.019-20.828.687-25.385.576-12.048,0-13.838.012S340.647,260.6,339.335,259.873Z" transform="translate(-3.306 -33.614)" fill="#cbffdb"/>
    <path id="Pfad_197" data-name="Pfad 197" d="M339.336,261.376s.1,1.019,6.919,1.063,27.485-.376,29.679-.266S386.48,260.8,386.48,260.8l-18.181.507-21.66.1S340.457,262.307,339.336,261.376Z" transform="translate(-3.307 -35.117)" fill="#00536c"/>
    <path id="Pfad_198" data-name="Pfad 198" d="M388.532,262.217s.811,1.351-4.008,1.595-24.193-.044-26.912,0-9.663-.067-11.929,0-6.346-2.437-6.346-2.437,3.817,1.528,6.919,1.063,21.807-.228,21.807-.228,9.041-.053,9.88-.146,7.893-1.246,8.538-1.266S388.508,260.955,388.532,262.217Z" transform="translate(-3.307 -35.117)" fill="#aeffc5"/>
    <path id="Pfad_199" data-name="Pfad 199" d="M341.668,265.617s11.929.93,17.416.443,21.711-1.894,21.711-1.894H347.537a30.269,30.269,0,0,1-4.43-.634c-.841-.339-1.044-.426-1.044-.426l-2.828-1.476S337.9,265.063,341.668,265.617Z" transform="translate(-3.206 -35.371)" fill="#00536c"/>
    <path id="Pfad_200" data-name="Pfad 200" d="M345.034,255.883a59.858,59.858,0,0,1,8.27.405c2.73.493,18.81,1.608,19.142,1.614s14.63-.545,15.776-.944c0,0,1.888,1.68,0,2.335a40.588,40.588,0,0,0-11.39-1.024c-7.088.217-23.827-1.439-23.827-1.439Z" transform="translate(-5.05 -33.611)" fill="#002553"/>
    <path id="Pfad_201" data-name="Pfad 201" d="M342.35,249.825s-1.219-1.757.77-1.919,11.562.566,13.109.543,18.556-1.433,18.556-1.433,8.28-1.2,9.769-.6c0,0-11.915,1.382-13.036,1.485s-16.752.952-17.9,1.085S343.134,250.156,342.35,249.825Z" transform="translate(-4.116 -30.665)" fill="#002553"/>
    <path id="Pfad_202" data-name="Pfad 202" d="M345.034,236.978s19.677,2.306,27.456,2.37,15.733,1.041,15.733,1.041.636-1.6-.451-1.705-13.37.347-14.484.283-12.08-1.044-12.08-1.044-10.166-.954-11-.965-4.285-.246-4.47-.23A3.815,3.815,0,0,0,345.034,236.978Z" transform="translate(-5.05 -27.752)" fill="#002553"/>
    <path id="Pfad_203" data-name="Pfad 203" d="M344.26,218.165s15.263,2.258,19.576,1.992c0,0,19.221.582,20.338.719s3.9,1.263,4,.7.336-2.045-2.279-1.873-17.688.233-19.651.018-12.458-1.112-12.458-1.112S344.817,217.314,344.26,218.165Z" transform="translate(-4.813 -21.984)" fill="#002553"/>
    <path id="Pfad_204" data-name="Pfad 204" d="M344.911,230.945s-1.417-1.043.205-1.8c0,0,12.986.686,14.669.31s22.372-1.938,23.346-1.958,4.069-.743,3.984.032-24.721,2.306-24.721,2.306S346.206,231.388,344.911,230.945Z" transform="translate(-4.837 -24.83)" fill="#002553"/>
    <path id="Pfad_205" data-name="Pfad 205" d="M342.86,212.306a1.042,1.042,0,0,1,.916-1.639c1.7-.223,12.6.464,13.863.386s14.93-1.407,15.417-1.451,12.009-.707,12.009-.707l-17.457,1.868S343.52,212.64,342.86,212.306Z" transform="translate(-4.33 -19.237)" fill="#002553"/>
    <path id="Pfad_206" data-name="Pfad 206" d="M344.383,199.811l6.159.394,19.62,1.844-15.1-1.119Z" transform="translate(-4.851 -16.458)" fill="#002553"/>
    <path id="Pfad_207" data-name="Pfad 207" d="M390.405,202.878s11.572,1.562,12.187,1.022.263-2.116-1.331-1.836S392.087,202.873,390.405,202.878Z" transform="translate(-18.932 -17.137)" fill="#002553"/>
    <path id="Pfad_208" data-name="Pfad 208" d="M403.75,208.575s3.063-1.108,3.59-.588.758,3.379-.11,3.256S404.418,208.31,403.75,208.575Z" transform="translate(-23.015 -18.916)" fill="#002553"/>
    <path id="Pfad_209" data-name="Pfad 209" d="M403.41,191.108s1.649-.863,2.137-.743.842,1.116.443,1.426.155,1.278-.491.852S403.41,191.108,403.41,191.108Z" transform="translate(-22.911 -13.564)" fill="#002553"/>
  </g>
</svg>
