<svg xmlns="http://www.w3.org/2000/svg" width="162.784" height="109.509" viewBox="0 0 162.784 109.509">
  <g id="Gruppe_18" data-name="Gruppe 18" transform="translate(-267.894 -134.936)">
    <path id="Pfad_50" data-name="Pfad 50" d="M295.658,236.163l-27.765-4.627v-89.5l26.215-4.482Z" transform="translate(0 3.161)" fill="#2b4b65"/>
    <path id="Pfad_51" data-name="Pfad 51" d="M308.637,244.445,282,238.526v-99.22l26.215-4.369Z" transform="translate(17.041)" fill="#2b4b65"/>
    <path id="Pfad_52" data-name="Pfad 52" d="M396.518,223.727,296.17,244.445V134.936l99.643,19.59Z" transform="translate(34.159)" fill="#2b4b65"/>
    <path id="Rechteck_65" data-name="Rechteck 65" d="M.17,0H4.694A1.319,1.319,0,0,1,6.013,1.319V75.667a1.191,1.191,0,0,1-1.191,1.191H.6a.6.6,0,0,1-.6-.6V.17A.17.17,0,0,1,.17,0Z" transform="translate(366.128 151.05)" fill="#fff"/>
    <path id="Rechteck_66" data-name="Rechteck 66" d="M.17,0H7A1.319,1.319,0,0,1,8.315,1.319V85.063a1.191,1.191,0,0,1-1.191,1.191H.6a.6.6,0,0,1-.6-.6V.17A.17.17,0,0,1,.17,0Z" transform="translate(337.588 146.211)" fill="#fff"/>
    <path id="Rechteck_67" data-name="Rechteck 67" d="M.654,0H3.97A2.09,2.09,0,0,1,6.06,2.09V69a1.468,1.468,0,0,1-1.468,1.468H.67A.67.67,0,0,1,0,69.8V.654A.654.654,0,0,1,.654,0Z" transform="translate(387.691 153.963)" fill="#fff"/>
    <path id="Pfad_53" data-name="Pfad 53" d="M340.112,204.785h0a1.939,1.939,0,0,1-1.974-1.939V147.89a1.444,1.444,0,0,1,1.42-1.444h0a2.413,2.413,0,0,1,2.458,2.411v53.989A1.94,1.94,0,0,1,340.112,204.785Z" transform="translate(84.857 13.904)" fill="#fff"/>
    <path id="Pfad_54" data-name="Pfad 54" d="M337.2,207.635h0c-1.4,0-2.537-2.5-2.537-3.9V148.111a2.536,2.536,0,0,1,2.537-2.537h0a2.535,2.535,0,0,1,2.535,2.537v55.627C339.732,205.138,338.6,207.635,337.2,207.635Z" transform="translate(80.656 12.851)" fill="#fff"/>
    <rect id="Rechteck_68" data-name="Rechteck 68" width="5.356" height="66.664" rx="1.213" transform="translate(398.402 156.5)" fill="#fff"/>
    <rect id="Rechteck_69" data-name="Rechteck 69" width="5.919" height="73.993" rx="0.941" transform="translate(377.825 152.553)" fill="#fff"/>
    <rect id="Rechteck_70" data-name="Rechteck 70" width="4.933" height="62.858" rx="1.117" transform="translate(407.141 157.627)" fill="#fff"/>
    <path id="Rechteck_71" data-name="Rechteck 71" d="M.511,0H5.26A1.787,1.787,0,0,1,7.047,1.787V80.274A2.128,2.128,0,0,1,4.919,82.4H.979A.979.979,0,0,1,0,81.423V.511A.511.511,0,0,1,.511,0Z" transform="translate(352.973 147.574)" fill="#fff"/>
  </g>
</svg>
