<svg xmlns="http://www.w3.org/2000/svg" width="151.737" height="123.5" viewBox="0 0 151.737 123.5">
  <g id="Gruppe_29" data-name="Gruppe 29" transform="translate(-19.787 -126.702)">
    <rect id="Rechteck_74" data-name="Rechteck 74" width="35.073" height="4.607" transform="translate(132.141 144.09)" fill="#2b4b65"/>
    <rect id="Rechteck_75" data-name="Rechteck 75" width="34.925" height="4.607" transform="translate(23.8 144.09)" fill="#2b4b65"/>
    <rect id="Rechteck_76" data-name="Rechteck 76" width="75.646" height="5.053" transform="translate(57.982 126.702)" fill="#2b4b65"/>
    <path id="Pfad_71" data-name="Pfad 71" d="M28.318,146.307v10.408H54.907v4.75H28.318v10.85H54.907v4.47H28.318v10.85H54.907v4.307H28.318v10.71H54.907v27.032H25.477V229.1H22.66V137.11H54.907v9.2Z" transform="translate(3.816 13.825)" fill="#2b4b65"/>
    <path id="Pfad_72" data-name="Pfad 72" d="M100.753,137.11v92.574H68.04V202.652H95.1v-10.71H68.04v-4.307H95.1v-10.85H68.04v-5.052H95.1V161.464H68.04v-4.75H95.1V145.422H68.04V137.11Z" transform="translate(64.095 13.825)" fill="#2b4b65"/>
    <rect id="Rechteck_77" data-name="Rechteck 77" width="151.737" height="5.796" transform="translate(19.787 244.406)" fill="#2b4b65"/>
    <rect id="Rechteck_78" data-name="Rechteck 78" width="0.629" height="1.281" transform="translate(118.328 235.337)"/>
    <path id="Pfad_73" data-name="Pfad 73" d="M37.28,129.83v82.492h.885v27.032h68.662V129.83ZM95.721,232.462h-.629v5.122H50.2v-5.122h44.89v-1.281H50.2v-17.09h44.89v17.09h.629Zm5.239-24.61H43.66V196.42h57.3Zm0-15.9H43.66V180.518h57.3Zm0-15.46H43.66V165.36h57.3Zm0-15.739H43.66V150.18h57.3Z" transform="translate(23.236 4.155)" fill="#2b4b65"/>
    <rect id="Rechteck_79" data-name="Rechteck 79" width="39.903" height="1.672" transform="translate(75.37 220.813)" fill="#2b4b65"/>
    <rect id="Rechteck_80" data-name="Rechteck 80" width="39.903" height="1.486" transform="translate(75.37 224.213)" fill="#2b4b65"/>
    <path id="Pfad_74" data-name="Pfad 74" d="M83.563,171.741l-39.9.074v-1.635l39.9-.074Z" transform="translate(31.71 57.655)" fill="#2b4b65"/>
    <rect id="Rechteck_81" data-name="Rechteck 81" width="39.903" height="1.635" transform="translate(75.37 231.421)" fill="#2b4b65"/>
    <rect id="Rechteck_82" data-name="Rechteck 82" width="0.629" height="1.281" transform="translate(118.328 235.337)"/>
  </g>
</svg>
