<svg xmlns="http://www.w3.org/2000/svg" width="109" height="116.962" viewBox="0 0 109 116.962">
  <g id="Gruppe_28" data-name="Gruppe 28" transform="translate(-648.832 -119.224)">
    <ellipse id="Ellipse_27" data-name="Ellipse 27" cx="8.805" cy="9.551" rx="8.805" ry="9.551" transform="translate(667.071 140.798) rotate(-15.479)"/>
    <ellipse id="Ellipse_28" data-name="Ellipse 28" cx="8.805" cy="9.551" rx="8.805" ry="9.551" transform="translate(716.798 123.924) rotate(-15.479)"/>
    <path id="Pfad_64" data-name="Pfad 64" d="M756.739,153.845c-1.394-2-17.858-.27-18.465-.607-.63-.337-.54-2.924-.585-5.51s-3.216-1.777-3.644-1.822-.18,6.995-.18,6.995l-12.82.09s-.247.427-.112-2.766c.157-3.216.247-3.846-1.709-3.733-1.957.09-1.349,5.69-1.732,6.59-.382.922-6.208,0-6.208,0s-.382,2.159-.495,3.261c-.09,1.1-3.441,4.3-3.441,4.3h43.07s.045,16.081,0,17.9-2.294,2.159-4.408,1.147c-2.092-.99-.472-4.026-.855-5.353-.382-1.349-3.059-1.349-4.5-1.349s-1.012-2.676-1.147-3.823-1.349-2.047-8.614-2.092c-7.265-.067-5.69,4.251-6.32,4.97s-3.059.99-4.588,2.092-.292,4.948-.967,5.555c-.675.63-6.7.922-7.647,0-.967-.9,0-6.32-.765-6.7s-6.995.045-9.581,0h-.022c-.27-.045-2.542-.337-2.452,1.259a32.243,32.243,0,0,1-.855,5.578c-1.529.382-9.109-.135-9.109-.135l-.18-23.548.112-.652A18.691,18.691,0,0,0,699.41,159c7.647.225,7.849-4.431,7.084-6.68s-4.835-1.484-8.906-1.237-6.882-8.142-6.882-8.142-1.822-4.093-2.5-4.476c-.675-.4-3.644.067-3.644.067s-15.879-.18-16.261,0c-.382.2-10.143,25.37-10.526,27.574s1.709,4.206,1.709,4.206l-.382,9.2s-8.5-.112-9.176,0c-.675.09-4.116,6.028,6.118,17.228h10.661s-.787,13.2,2.159,14.732c2.969,1.529,6.432,1.732,6.9-4.588s-.967-28.136,2.339-27.754.135,29.081,2.452,31.757c2.294,2.7,8.119,1.057,8.411-3.621,0,0,67.383.292,68.148-.382l-6.432-7.984c.675.7,5.758,5.893,6.432,7.534l.675-43S758.134,155.869,756.739,153.845ZM668.1,179.687s-5.353.675-5.353-.562c0-1.259-.855-7.287.382-8.434.652-.607,1.619-3.1,2.811-5.465a.483.483,0,0,0,.067-.112,20.588,20.588,0,0,1,1.1-1.979s.72-.225,1.192.99a7.582,7.582,0,0,1,.382,2.541C668.777,170.691,668.1,179.687,668.1,179.687Zm82.519,19.14h-11.7s-.382-4.678-6.7-4.588l-2.677.2s.967-5.375-1.709-5.375-13.495-.945-13.99-.18c0,0-1.574-.585-.855,3.913l-.112,5.713a2.063,2.063,0,0,1-.562.135c-2.362.337-6.365.517-7.287-.315.112-2.047.27-5.87-.068-6.005-.382-.157-8.052-.068-11.29-.023h-.157c-.787.023-1.282.023-1.282.023-.877.292.382,5.825-.967,6.117-1.327.292-4.678,1.732-3.621-7.647,0,0-.877-6.7,2.676-6.7l60.478-.855Z" transform="translate(0 23.824)"/>
    <path id="Pfad_65" data-name="Pfad 65" d="M668.13,162.346s.495,0,1.282-.023A5.051,5.051,0,0,0,668.13,162.346Zm64.886,14.124v-.023c-.675-1.642-5.758-6.837-6.432-7.534l6.432,7.984C733.106,176.83,733.084,176.673,733.016,176.47Z" transform="translate(24.105 53.805)"/>
    <path id="Pfad_66" data-name="Pfad 66" d="M658.764,150.339c-.945-.967-1.957.495-2.294.99a20.588,20.588,0,0,1,1.1-1.979S658.292,149.124,658.764,150.339Z" transform="translate(9.541 37.608)"/>
    <path id="Pfad_67" data-name="Pfad 67" d="M700.552,172.774v.45l-6.432-7.984C694.795,165.937,699.878,171.133,700.552,172.774Z" transform="translate(56.569 57.478)"/>
    <path id="Pfad_68" data-name="Pfad 68" d="M686.072,130.05V153.4s5.1-.67,5.868,1.435,2.344,6.779,6.221,6.594,1.482-5.542,0-10.519-7.035-20.577-7.753-20.863A21.49,21.49,0,0,0,686.072,130.05Z" transform="translate(46.516 13.363)"/>
    <path id="Pfad_69" data-name="Pfad 69" d="M688.256,129.922a6.6,6.6,0,0,0-4.595,4.368c-1.484,3.846-9.093,21.6-8.805,22.844s2.537,7.753,7.847,2.872c0,0,1.531-6.127,2.872-6.6s2.919.335,3.54-.767.385-22.714.385-22.714Z" transform="translate(32.496 13.363)"/>
    <path id="Pfad_70" data-name="Pfad 70" d="M682.818,129.922h5.935s1.244,7.928-1.914,8.549S682.1,135.394,682.818,129.922Z" transform="translate(42.238 13.363)"/>
  </g>
</svg>
