<svg xmlns="http://www.w3.org/2000/svg" width="106.651" height="122" viewBox="0 0 106.651 122">
  <g id="Gruppe_27" data-name="Gruppe 27" transform="translate(-519.509 -121.006)">
    <circle id="Ellipse_24" data-name="Ellipse 24" cx="11.599" cy="11.599" r="11.599" transform="translate(540.229 121.006)"/>
    <path id="Pfad_59" data-name="Pfad 59" d="M533.172,138.935s-4.967,15.865-3.588,28.421,5.553,9.794,1.673,24.833-12.986,18.625-11.607,22.626,4.693,7.312,11.039,3.035,10.762-14.9,10.762-14.9-2.483,10.624-2.209,12.141S544.9,222.127,550,217.85s4.829-24.556,4.967-25.937-5.933-15.727-6.9-20.694-3.173-11.2-1.1-12.016,8.14,7.738,13.8,6.5,10.76-.966,9.657-4.967-4.829-4.416-9.106-4.967-10.209-3.726-11.864-6.9,1.1-6.484,1.1-7.448-.128-6.623-5.512-8.555S533.172,138.935,533.172,138.935Z" transform="translate(0 13.423)"/>
    <path id="Pfad_60" data-name="Pfad 60" d="M542.551,146.992v48.582H599.4" transform="translate(26.762 30.181)" fill="none" stroke="#000" stroke-miterlimit="10" stroke-width="4"/>
    <path id="Pfad_61" data-name="Pfad 61" d="M562.07,146.106H546.894v42.769h41.666V146.106h-16.28v7.726H561.794Z" transform="translate(31.806 29.153)" fill="#67a3ff"/>
    <path id="Pfad_62" data-name="Pfad 62" d="M551.362,158.743l5.794-5.1,3.584,5.1H558.26l-.276,11.727h-3.311l.276-11.727Z" transform="translate(36.996 37.901)" fill="#fff"/>
    <path id="Pfad_63" data-name="Pfad 63" d="M557.234,158.743l5.794-5.1,3.584,5.1h-2.481l-.276,11.727h-3.311l.276-11.727Z" transform="translate(43.816 37.901)" fill="#fff"/>
    <rect id="Rechteck_73" data-name="Rechteck 73" width="22.072" height="3.863" transform="translate(588.357 211.958)" fill="#fff"/>
    <circle id="Ellipse_25" data-name="Ellipse 25" cx="5.676" cy="5.676" r="5.676" transform="translate(571.791 231.655)"/>
    <circle id="Ellipse_26" data-name="Ellipse 26" cx="5.676" cy="5.676" r="5.676" transform="translate(607.937 231.655)"/>
  </g>
</svg>
