<svg xmlns="http://www.w3.org/2000/svg" width="75" height="150" viewBox="0 0 75 150">
  <g id="Gruppe_17" data-name="Gruppe 17" transform="translate(-166.511 -130.66)">
    <path id="Pfad_46" data-name="Pfad 46" d="M179.288,150.1V130.66h13.889V150.1h16.667V130.66h18.333V150.1l13.333,38.889V280.66H207.622l-3.889-49.445L195.4,280.66H166.511v-95Z" transform="translate(0 0)" fill="#a0d3ff"/>
    <rect id="Rechteck_62" data-name="Rechteck 62" width="28.333" height="25" transform="translate(189.844 163.993)" fill="#fff"/>
    <rect id="Rechteck_63" data-name="Rechteck 63" width="9.583" height="22.5" transform="translate(166.58 241.91)" fill="#c8ffec"/>
    <rect id="Rechteck_64" data-name="Rechteck 64" width="10.417" height="22.5" transform="translate(231.094 241.91)" fill="#c8ffec"/>
    <path id="Pfad_47" data-name="Pfad 47" d="M241.511,159.479h-75v-7.5h75Z" transform="translate(0 48.264)" fill="#fff"/>
    <path id="Pfad_48" data-name="Pfad 48" d="M177.758,165.524V154.277H166.511v27.081S177.758,169.483,177.758,165.524Z" transform="translate(0.001 53.467)" fill="#5e8bb2"/>
    <path id="Pfad_49" data-name="Pfad 49" d="M184.894,154.277v13.542l15,16.458v-30Z" transform="translate(41.617 53.466)" fill="#5e8bb2"/>
  </g>
</svg>
